<mxfile host="app.diagrams.net" agent="Mozilla/5.0 (Macintosh; Intel Mac OS X 10_15_7) AppleWebKit/537.36 (KHTML, like Gecko) Chrome/141.0.0.0 Safari/537.36" version="28.2.7">
  <diagram name="第 1 页" id="Yc3pT3YUkM70nsO1i6sX">
    <mxGraphModel dx="1018" dy="595" grid="1" gridSize="10" guides="1" tooltips="1" connect="1" arrows="1" fold="1" page="1" pageScale="1" pageWidth="827" pageHeight="1169" math="0" shadow="0">
      <root>
        <mxCell id="0" />
        <mxCell id="1" parent="0" />
        <mxCell id="UIplOliulNh_B8PLG05a-9" value="" style="edgeStyle=orthogonalEdgeStyle;rounded=0;orthogonalLoop=1;jettySize=auto;html=1;" edge="1" parent="1" source="UIplOliulNh_B8PLG05a-1" target="UIplOliulNh_B8PLG05a-2">
          <mxGeometry relative="1" as="geometry" />
        </mxCell>
        <mxCell id="UIplOliulNh_B8PLG05a-1" value="精排日志" style="rounded=0;whiteSpace=wrap;html=1;" vertex="1" parent="1">
          <mxGeometry x="340" y="150" width="120" height="60" as="geometry" />
        </mxCell>
        <mxCell id="UIplOliulNh_B8PLG05a-10" value="" style="edgeStyle=orthogonalEdgeStyle;rounded=0;orthogonalLoop=1;jettySize=auto;html=1;" edge="1" parent="1" source="UIplOliulNh_B8PLG05a-2" target="UIplOliulNh_B8PLG05a-3">
          <mxGeometry relative="1" as="geometry" />
        </mxCell>
        <mxCell id="UIplOliulNh_B8PLG05a-2" value="实时处理&lt;div&gt;（统计频次 + 判断达标）&lt;/div&gt;" style="rounded=0;whiteSpace=wrap;html=1;" vertex="1" parent="1">
          <mxGeometry x="325" y="270" width="150" height="60" as="geometry" />
        </mxCell>
        <mxCell id="UIplOliulNh_B8PLG05a-11" value="" style="edgeStyle=orthogonalEdgeStyle;rounded=0;orthogonalLoop=1;jettySize=auto;html=1;entryX=0.5;entryY=0;entryDx=0;entryDy=0;" edge="1" parent="1" source="UIplOliulNh_B8PLG05a-3" target="UIplOliulNh_B8PLG05a-14">
          <mxGeometry relative="1" as="geometry">
            <mxPoint x="290" y="520" as="targetPoint" />
          </mxGeometry>
        </mxCell>
        <mxCell id="UIplOliulNh_B8PLG05a-3" value="igraph 写入过滤物品及对应过期时间" style="rounded=0;whiteSpace=wrap;html=1;" vertex="1" parent="1">
          <mxGeometry x="340" y="380" width="120" height="60" as="geometry" />
        </mxCell>
        <mxCell id="UIplOliulNh_B8PLG05a-12" value="" style="edgeStyle=orthogonalEdgeStyle;rounded=0;orthogonalLoop=1;jettySize=auto;html=1;" edge="1" parent="1" source="UIplOliulNh_B8PLG05a-4" target="UIplOliulNh_B8PLG05a-5">
          <mxGeometry relative="1" as="geometry" />
        </mxCell>
        <mxCell id="UIplOliulNh_B8PLG05a-15" value="" style="edgeStyle=orthogonalEdgeStyle;rounded=0;orthogonalLoop=1;jettySize=auto;html=1;" edge="1" parent="1" source="UIplOliulNh_B8PLG05a-4" target="UIplOliulNh_B8PLG05a-14">
          <mxGeometry relative="1" as="geometry" />
        </mxCell>
        <mxCell id="UIplOliulNh_B8PLG05a-4" value="召回" style="rounded=0;whiteSpace=wrap;html=1;" vertex="1" parent="1">
          <mxGeometry x="130" y="490" width="120" height="60" as="geometry" />
        </mxCell>
        <mxCell id="UIplOliulNh_B8PLG05a-16" value="" style="edgeStyle=orthogonalEdgeStyle;rounded=0;orthogonalLoop=1;jettySize=auto;html=1;" edge="1" parent="1" source="UIplOliulNh_B8PLG05a-5" target="UIplOliulNh_B8PLG05a-6">
          <mxGeometry relative="1" as="geometry" />
        </mxCell>
        <mxCell id="UIplOliulNh_B8PLG05a-5" value="粗排" style="rounded=0;whiteSpace=wrap;html=1;" vertex="1" parent="1">
          <mxGeometry x="440" y="490" width="120" height="60" as="geometry" />
        </mxCell>
        <mxCell id="UIplOliulNh_B8PLG05a-8" style="edgeStyle=orthogonalEdgeStyle;rounded=0;orthogonalLoop=1;jettySize=auto;html=1;entryX=1;entryY=0.5;entryDx=0;entryDy=0;exitX=0.5;exitY=0;exitDx=0;exitDy=0;" edge="1" parent="1" source="UIplOliulNh_B8PLG05a-6" target="UIplOliulNh_B8PLG05a-1">
          <mxGeometry relative="1" as="geometry" />
        </mxCell>
        <mxCell id="UIplOliulNh_B8PLG05a-6" value="精排" style="rounded=0;whiteSpace=wrap;html=1;" vertex="1" parent="1">
          <mxGeometry x="600" y="490" width="120" height="60" as="geometry" />
        </mxCell>
        <mxCell id="UIplOliulNh_B8PLG05a-14" value="过滤环节" style="whiteSpace=wrap;html=1;rounded=0;" vertex="1" parent="1">
          <mxGeometry x="280" y="490" width="120" height="60" as="geometry" />
        </mxCell>
      </root>
    </mxGraphModel>
  </diagram>
</mxfile>
